<?xml version="1.0" standalone="no"?>
<!DOCTYPE svg PUBLIC "-//W3C//DTD SVG 20010904//EN"
 "http://www.w3.org/TR/2001/REC-SVG-20010904/DTD/svg10.dtd">
<svg version="1.0" xmlns="http://www.w3.org/2000/svg"
 width="600.000000pt" height="600.000000pt" viewBox="0 0 600.000000 600.000000"
 preserveAspectRatio="xMidYMid meet">
<metadata>
Created by potrace 1.15, written by Peter Selinger 2001-2017
</metadata>
<g transform="translate(0.000000,600.000000) scale(0.100000,-0.100000)"
fill="#000000" stroke="none">
<path d="M2775 5659 c-11 -4 -37 -8 -58 -8 -21 -1 -46 -5 -55 -10 -9 -5 -40
-11 -69 -14 -29 -3 -77 -18 -110 -35 -32 -17 -70 -33 -85 -36 -15 -3 -39 -17
-54 -31 -15 -14 -36 -25 -48 -26 -12 0 -34 -9 -51 -19 -16 -11 -50 -30 -75
-44 -153 -82 -356 -262 -398 -352 -29 -61 -25 -55 -93 -156 -73 -108 -84 -128
-80 -156 1 -13 -2 -29 -8 -36 -11 -14 -28 -124 -30 -196 -1 -25 -3 -107 -5
-184 -4 -134 2 -216 24 -321 17 -87 39 -238 42 -299 3 -57 2 -60 -22 -66 -24
-6 -24 -6 -3 -12 12 -3 28 -19 36 -34 20 -40 31 -94 18 -94 -5 0 2 -20 16 -46
14 -25 27 -44 28 -42 2 2 6 73 10 158 3 85 10 195 15 244 5 49 9 92 8 95 -3
15 15 61 28 72 8 6 11 15 8 20 -3 5 2 6 10 3 11 -4 16 0 16 14 0 12 5 24 10
27 6 4 8 11 5 16 -3 5 0 6 8 3 21 -8 26 5 31 73 2 33 9 69 15 81 17 31 13 37
-9 17 -23 -21 -26 -9 -5 19 23 30 20 59 -5 51 -24 -8 -25 3 -5 41 18 36 19 58
3 48 -10 -6 -10 -4 0 7 17 18 15 32 -3 25 -17 -6 -21 9 -5 19 15 9 12 38 -2
29 -10 -6 -10 -4 0 7 6 7 12 21 12 31 0 11 19 37 42 58 31 30 44 37 54 29 14
-12 55 -3 66 15 5 8 8 7 8 -2 0 -7 5 -10 11 -7 6 4 13 -2 16 -13 4 -17 9 -19
28 -12 16 6 25 5 29 -3 2 -7 5 -5 5 4 1 9 12 24 26 33 14 9 24 20 23 24 -2 12
14 42 23 42 4 0 6 -6 3 -14 -4 -10 0 -13 13 -10 12 3 27 25 39 56 21 55 68 94
120 100 16 2 35 9 42 16 15 14 52 16 52 3 0 -12 59 -20 66 -9 3 4 12 8 20 8 8
0 12 -4 9 -10 -3 -5 0 -10 7 -10 7 0 30 -14 51 -31 20 -17 43 -28 50 -26 8 4
7 6 -3 6 -17 1 -50 35 -50 52 0 6 7 8 16 5 9 -3 20 -6 25 -6 6 0 7 -5 3 -11
-3 -6 1 -10 12 -9 33 4 45 0 39 -11 -9 -13 27 -8 37 6 5 6 8 3 8 -7 0 -9 -8
-22 -17 -28 -14 -8 -12 -9 12 -4 17 4 33 11 36 17 4 5 9 5 13 -2 4 -6 12 -8
18 -5 7 4 8 2 4 -4 -4 -6 -13 -9 -21 -5 -11 4 -13 1 -9 -11 4 -10 12 -15 19
-12 7 2 18 -1 24 -7 8 -8 11 -8 11 1 0 14 27 16 32 2 2 -5 20 -12 42 -14 21
-3 49 -12 62 -21 13 -8 30 -15 37 -15 8 0 28 -7 45 -16 18 -8 36 -13 41 -10 5
3 33 1 62 -5 30 -6 70 -12 89 -14 19 -2 60 -14 90 -28 30 -13 71 -27 91 -30
20 -3 49 -17 64 -31 29 -27 51 -35 39 -13 -6 10 -4 10 7 0 7 -7 20 -13 28 -13
8 0 40 -20 70 -44 48 -37 85 -55 150 -72 7 -3 10 -11 7 -19 -3 -8 -1 -15 4
-15 6 0 10 5 10 12 0 9 3 9 12 0 15 -15 32 -16 23 -2 -9 15 17 11 39 -5 18
-14 18 -15 2 -15 -10 0 -14 -5 -10 -11 4 -7 -1 -7 -16 1 -20 11 -22 10 -17 -5
4 -9 7 -20 7 -25 0 -5 10 -10 22 -12 25 -4 37 -28 14 -28 -9 0 -16 5 -16 11 0
5 -5 7 -11 4 -5 -4 -9 -14 -7 -23 2 -10 -5 -25 -16 -35 -19 -17 -19 -17 1 -14
28 4 73 38 73 54 0 18 17 16 24 -3 3 -8 2 -12 -4 -9 -8 5 -14 -12 -9 -27 0 -2
-4 -15 -10 -30 -8 -20 -7 -29 2 -35 7 -4 12 -18 13 -30 0 -19 -2 -20 -19 -11
-17 9 -19 8 -14 -6 4 -9 2 -16 -3 -16 -15 0 -12 -21 7 -42 15 -17 14 -18 -15
-18 -18 0 -32 -5 -32 -10 0 -6 -6 -5 -14 2 -8 7 -12 16 -9 21 2 4 -7 7 -21 7
-14 0 -28 -5 -31 -10 -4 -7 -13 -6 -26 1 -21 11 -41 3 -23 -9 6 -4 13 -15 17
-25 5 -13 0 -20 -19 -28 -15 -5 -31 -9 -38 -8 -30 4 -56 -2 -70 -16 -8 -8 -22
-15 -31 -15 -9 0 -13 -5 -9 -11 4 -8 -1 -9 -17 -3 -28 9 -279 13 -294 5 -5 -3
-12 -6 -15 -6 -12 -1 -50 -40 -50 -52 0 -19 -19 -26 -35 -13 -10 8 -15 9 -15
2 0 -6 4 -13 9 -16 26 -16 -41 -86 -82 -86 -8 0 -19 -5 -22 -10 -4 -6 -12 -10
-18 -9 -7 1 -29 -6 -50 -15 -32 -14 -37 -20 -31 -38 4 -12 24 -40 46 -61 31
-31 37 -42 27 -53 -8 -10 -8 -14 0 -14 6 0 11 -7 11 -15 0 -8 -5 -15 -11 -15
-8 0 -8 -5 1 -15 10 -12 10 -15 0 -15 -8 0 -10 -3 -7 -7 4 -3 0 -14 -8 -23
-13 -15 -13 -20 1 -51 9 -19 23 -41 31 -50 8 -9 13 -20 12 -25 -1 -5 -1 -22 0
-38 1 -24 3 -27 16 -16 9 7 13 20 10 29 -3 11 0 10 10 -3 12 -16 12 -22 2 -28
-12 -7 -18 -68 -7 -68 4 0 17 -14 30 -32 18 -25 20 -30 6 -25 -14 5 -16 3 -11
-12 3 -10 1 -30 -4 -44 -9 -22 -7 -29 11 -41 26 -18 39 -11 14 7 -13 10 -15
18 -8 37 l10 25 10 -25 c5 -14 22 -37 36 -50 14 -14 26 -32 26 -39 0 -12 3
-12 12 -3 16 16 48 -13 48 -45 0 -25 -1 -25 -77 -27 -35 -1 -53 3 -53 11 0 27
-65 8 -105 -30 -22 -21 -57 -47 -77 -58 -21 -11 -38 -26 -38 -34 0 -8 -4 -15
-10 -15 -25 0 -6 -20 28 -30 29 -7 53 -6 98 5 90 24 93 25 99 45 6 20 65 55
65 39 0 -5 -5 -9 -11 -9 -6 0 -9 -6 -6 -14 4 -10 0 -13 -14 -11 -11 2 -22 -2
-26 -11 -6 -16 17 -49 26 -36 3 4 22 14 41 22 19 7 42 19 50 25 8 7 30 18 48
26 18 8 30 19 27 27 -2 7 0 23 4 35 7 18 3 35 -15 71 -13 26 -24 54 -24 62 0
8 -6 14 -12 14 -8 0 -14 16 -16 38 -1 20 -7 39 -14 41 -6 2 0 10 13 18 15 9
17 12 5 9 -13 -5 -17 -2 -12 9 7 20 -3 45 -19 45 -7 0 -17 14 -20 32 -4 17
-14 38 -21 46 -17 17 -18 36 -1 26 6 -4 1 6 -13 22 -14 16 -28 30 -31 32 -4 2
-5 11 -2 21 3 10 0 22 -6 25 -7 5 -7 13 1 26 14 22 4 38 -14 22 -10 -8 -13 -1
-15 32 -1 39 1 44 30 57 18 8 40 13 50 11 15 -3 16 -5 2 -25 -19 -27 -19 -38
0 -31 8 4 39 10 68 14 46 7 48 8 15 9 -21 0 -38 6 -38 12 0 5 4 8 9 5 4 -3 16
3 26 14 10 11 31 26 46 34 23 12 29 12 33 0 3 -7 12 -11 21 -8 8 3 15 1 15 -5
0 -6 -7 -11 -16 -11 -12 0 -15 -6 -10 -22 3 -13 6 -28 6 -34 0 -7 16 -15 35
-18 20 -4 33 -11 30 -16 -3 -5 -20 -7 -37 -3 -24 5 -29 3 -23 -7 6 -10 4 -12
-9 -7 -10 4 -15 3 -11 -3 3 -6 24 -10 46 -10 42 0 79 -14 79 -30 0 -14 -82 -6
-119 13 -40 20 -44 21 -35 6 3 -6 0 -15 -7 -20 -10 -7 -6 -8 11 -4 18 4 34 -1
53 -16 27 -20 29 -20 47 -4 18 16 20 17 20 2 0 -20 16 -23 23 -4 4 8 8 9 14 1
13 -17 43 -24 61 -15 53 29 122 38 122 17 0 -10 6 -13 16 -9 16 6 16 7 0 18
-24 18 -20 28 9 21 16 -4 25 -2 25 5 0 8 7 6 18 -4 17 -15 19 -15 35 3 20 24
30 25 47 5 14 -17 35 -21 25 -5 -3 5 3 19 14 31 11 12 18 25 16 29 -12 19 28
17 61 -2 l36 -21 -6 21 c-7 20 -5 21 16 13 18 -7 23 -16 21 -42 -1 -24 1 -29
9 -18 7 10 8 6 3 -14 -3 -17 -1 -35 6 -43 9 -11 8 -15 -5 -20 -9 -3 -13 -10
-10 -15 3 -5 10 -7 15 -4 10 7 12 -8 2 -18 -3 -4 -7 -17 -9 -30 -10 -109 -18
-157 -25 -157 -5 0 -9 5 -9 10 0 6 -4 10 -10 10 -5 0 -10 -7 -10 -15 0 -8 9
-15 21 -15 13 0 18 -4 14 -12 -4 -7 1 -4 9 6 13 17 16 17 16 4 0 -33 -11 -49
-26 -37 -11 9 -11 5 -4 -22 5 -18 7 -35 5 -38 -3 -2 -5 1 -5 7 0 7 -4 12 -10
12 -5 0 -10 -9 -10 -21 0 -11 5 -17 10 -14 6 3 10 -3 10 -15 0 -18 -3 -19 -20
-10 -16 9 -20 8 -20 -5 0 -8 8 -15 18 -15 10 0 13 -3 6 -8 -6 -4 -21 -26 -33
-49 -11 -23 -25 -45 -31 -48 -6 -4 -8 -15 -5 -25 4 -12 0 -20 -12 -24 -25 -8
-49 -46 -29 -46 8 0 16 7 20 15 3 8 10 15 16 15 16 0 -22 -48 -42 -55 -10 -4
-18 -13 -18 -21 0 -8 -4 -14 -10 -14 -5 0 -13 0 -17 0 -5 0 -8 10 -8 22 0 12
-6 23 -13 25 -8 3 -11 -4 -10 -19 2 -18 -1 -23 -17 -21 -11 1 -14 0 -7 -3 6
-3 12 -14 12 -23 0 -14 -6 -17 -25 -13 -19 3 -25 0 -25 -12 0 -10 -4 -15 -9
-11 -6 3 -14 -2 -19 -10 -6 -13 -14 -14 -34 -6 -14 5 -29 7 -33 3 -7 -6 0 21
13 57 4 10 1 13 -11 8 -20 -8 -46 15 -64 56 -7 15 -18 27 -25 27 -9 0 -9 -3 0
-12 7 -7 12 -19 12 -27 0 -11 -4 -10 -16 5 -15 18 -15 18 -8 -5 4 -16 3 -21
-5 -17 -6 4 -11 0 -11 -9 0 -12 6 -15 20 -10 16 5 20 2 20 -14 0 -12 -5 -21
-11 -21 -5 0 -7 5 -4 10 3 5 1 10 -5 10 -7 0 -14 -9 -17 -20 -3 -11 -9 -17
-14 -14 -5 3 -23 -5 -40 -17 -30 -21 -31 -21 -25 -2 7 22 -18 41 -29 22 -4 -5
-11 -7 -16 -4 -5 4 -9 -4 -9 -16 0 -18 -3 -19 -15 -9 -15 13 -54 5 -68 -14 -6
-8 -10 -8 -14 2 -2 6 -16 12 -30 12 -16 0 -23 -4 -20 -12 3 -7 8 -21 12 -30 4
-11 3 -18 -4 -18 -6 0 -11 5 -11 12 0 6 -3 9 -6 6 -3 -4 -1 -16 5 -27 11 -19
9 -20 -11 -13 -52 19 -419 -5 -508 -33 -30 -9 -74 -26 -98 -37 -24 -11 -60
-21 -80 -22 -44 -2 -62 -12 -62 -32 0 -13 4 -15 37 -18 6 -1 20 -9 30 -18 59
-57 71 -66 77 -61 3 4 6 -1 6 -10 0 -10 8 -17 20 -17 11 0 20 -5 20 -11 0 -5
5 -7 10 -4 6 4 8 10 5 15 -3 4 1 11 7 14 7 3 1 4 -14 2 -15 -1 -25 0 -23 5 3
4 1 10 -5 14 -15 9 -12 25 5 25 8 0 15 -4 15 -10 0 -19 28 -10 33 10 5 21 27
28 27 9 0 -16 20 1 30 25 7 19 15 23 52 22 53 -1 73 -12 58 -31 -8 -9 -6 -14
5 -19 14 -5 19 4 16 31 -1 7 6 13 16 14 16 1 32 0 113 -6 14 -1 35 -3 48 -3
49 -4 1 -87 -58 -100 -8 -2 -26 -11 -40 -20 -14 -9 -28 -17 -32 -17 -12 0 -22
-15 -10 -15 7 0 12 -4 12 -10 0 -6 -28 -10 -64 -10 -61 0 -89 -11 -67 -25 6
-3 8 -12 4 -20 -6 -18 23 -21 30 -2 4 8 8 9 14 1 4 -6 28 -14 52 -17 32 -4 40
-2 32 6 -23 23 -10 30 14 7 17 -16 28 -20 37 -13 17 13 50 25 44 15 -2 -4 18
-7 45 -7 35 0 49 4 49 14 0 10 3 11 13 2 17 -13 28 -5 20 15 -4 10 -13 12 -27
8 -18 -6 -19 -5 -7 10 7 9 23 16 36 16 12 0 25 3 29 8 4 4 12 8 17 8 5 1 14 2
19 3 6 0 10 8 10 16 0 8 7 15 15 15 8 0 15 -4 15 -10 0 -13 -37 -50 -49 -50
-11 0 -25 -39 -18 -47 3 -2 20 9 37 26 18 17 37 28 42 25 6 -4 5 -10 -3 -15
-11 -7 -11 -9 -1 -9 7 0 17 11 23 24 8 16 17 22 27 18 12 -4 14 -1 9 12 -4 10
-7 22 -7 27 0 4 -7 6 -15 3 -21 -9 -19 10 5 31 15 13 17 21 9 31 -6 7 -7 19
-3 26 5 7 9 19 10 27 3 16 43 45 64 47 24 3 67 22 75 33 17 28 22 6 8 -36 -12
-34 -13 -48 -5 -51 7 -2 10 -8 6 -13 -3 -5 -1 -9 4 -9 6 0 12 7 16 15 12 33
25 12 25 -40 -1 -47 -4 -55 -20 -55 -11 0 -22 7 -25 15 -4 8 -10 15 -15 15
-12 0 -12 -27 0 -32 5 -1 12 -22 14 -45 3 -36 1 -43 -13 -43 -11 0 -20 -10
-24 -26 -5 -19 -12 -25 -26 -21 -11 3 -17 0 -14 -7 2 -6 -4 -34 -15 -62 -18
-51 -18 -51 3 -61 12 -5 16 -8 10 -7 -6 1 -17 -3 -23 -9 -8 -8 -14 -8 -19 -2
-4 6 -16 17 -27 25 -14 11 -12 4 8 -22 l28 -38 -30 0 c-17 0 -31 -4 -31 -10 0
-5 4 -10 9 -10 5 0 12 -7 15 -16 3 -8 2 -12 -4 -9 -19 12 -49 -5 -43 -23 6
-14 4 -15 -9 -4 -12 9 -18 10 -23 2 -4 -6 -13 -9 -21 -6 -8 3 -11 0 -8 -9 4
-10 0 -12 -17 -8 -14 4 -20 2 -16 -4 11 -18 -25 -25 -37 -7 -11 14 -13 13 -24
-10 -7 -15 -24 -29 -44 -34 -18 -5 -32 -15 -30 -21 1 -8 -2 -9 -10 -5 -7 5
-24 7 -38 6 -20 -2 -22 -1 -10 7 11 8 4 11 -31 11 -25 0 -50 -5 -56 -11 -8 -8
-17 -8 -32 0 -17 10 -21 9 -21 -4 0 -8 -9 -15 -19 -15 -11 0 -21 -4 -23 -8 -1
-5 -21 -16 -43 -24 -22 -9 -39 -20 -38 -25 1 -5 -6 -9 -15 -10 -9 -1 -42 -4
-72 -7 -38 -3 -62 0 -77 10 -12 8 -29 14 -37 14 -9 0 -13 6 -10 14 4 9 -3 14
-20 14 -14 0 -26 -6 -26 -12 -1 -6 -9 -1 -19 12 -11 12 -24 22 -31 22 -11 0
-120 66 -130 79 -3 4 -27 25 -55 46 -27 22 -59 50 -70 62 -11 13 -24 23 -28
23 -5 0 -19 12 -32 28 -38 44 -41 17 -4 -40 18 -29 38 -58 44 -65 133 -156
243 -262 257 -248 6 6 85 -32 93 -45 4 -6 11 -8 16 -5 5 4 18 -1 30 -9 12 -8
28 -12 36 -9 7 3 22 -2 32 -11 10 -9 20 -14 23 -11 3 3 50 -2 104 -10 117 -19
155 -24 210 -28 23 -2 45 -6 50 -9 5 -3 24 -9 43 -13 52 -11 81 -52 50 -70 -6
-4 -8 -14 -5 -22 3 -8 1 -11 -4 -8 -5 3 -18 2 -27 -4 -17 -9 -17 -10 -1 -16
10 -4 16 -11 13 -16 -3 -4 -12 -6 -19 -3 -9 3 -15 -6 -19 -26 -4 -19 -16 -34
-32 -42 -18 -8 -22 -14 -13 -19 15 -9 -16 -42 -49 -53 -22 -7 -27 -36 -7 -36
8 0 11 -6 8 -15 -4 -8 -1 -15 5 -15 6 0 11 -7 11 -15 0 -18 23 -19 52 -4 15 8
19 8 14 0 -4 -6 -3 -11 3 -11 5 0 13 5 16 10 4 6 11 8 16 5 5 -4 21 2 37 13
15 11 33 17 40 15 6 -3 12 0 12 5 0 6 9 14 20 17 11 3 20 13 20 21 0 8 12 19
26 25 35 13 41 6 9 -11 -14 -7 -25 -17 -25 -22 0 -5 9 -4 19 2 32 17 38 11 11
-10 -14 -11 -31 -20 -38 -20 -8 0 -25 -9 -39 -20 -16 -12 -20 -20 -11 -20 8 0
18 4 24 9 12 12 131 60 162 66 14 2 40 14 59 27 28 19 33 28 29 49 -5 26 17
59 39 59 5 0 -1 -9 -14 -21 -12 -12 -20 -23 -18 -26 10 -9 57 29 57 46 0 21
53 73 98 95 17 9 32 23 32 32 0 18 26 47 37 41 5 -2 16 4 26 15 9 10 15 18 12
18 -3 0 8 13 25 30 29 28 42 35 64 31 5 -1 6 5 3 13 -10 24 3 25 28 0 19 -18
23 -33 22 -73 -1 -28 -5 -51 -8 -51 -4 0 -10 -7 -13 -16 -4 -12 -2 -15 9 -10
8 3 15 3 15 0 0 -10 -33 -69 -48 -86 -14 -16 -13 -18 4 -18 18 -1 17 -2 -3
-19 -27 -22 -30 -36 -7 -27 15 6 15 4 3 -11 -8 -10 -17 -20 -20 -23 -9 -8 -52
-104 -50 -113 0 -4 -8 -17 -19 -29 -19 -20 -19 -23 -3 -40 16 -18 16 -18 0
-12 -13 5 -16 2 -11 -10 3 -9 1 -16 -4 -16 -7 0 -9 -19 -7 -47 2 -26 -1 -53
-7 -60 -7 -9 -7 -13 2 -13 9 0 8 -5 -3 -18 -21 -23 -22 -36 -2 -28 18 6 20 -5
3 -22 -6 -6 -8 -15 -4 -19 4 -4 10 -2 14 4 4 7 13 9 21 4 10 -6 9 -11 -3 -24
-9 -8 -16 -20 -16 -25 0 -5 -48 -56 -106 -113 -174 -170 -199 -200 -265 -299
-34 -52 -93 -137 -132 -189 l-70 -95 -35 40 c-219 244 -528 520 -685 612 -20
12 -43 26 -50 32 -6 6 -32 25 -57 44 -27 20 -51 48 -59 70 -8 20 -18 36 -22
36 -4 0 -9 8 -11 18 -4 15 0 17 26 14 30 -5 31 -4 13 15 -9 11 -17 26 -17 34
0 8 -5 20 -12 27 -9 9 -9 12 2 12 10 0 10 4 -2 18 -15 16 -65 111 -104 197
-17 36 -19 70 -19 357 0 174 -3 320 -7 324 -10 9 -72 -23 -102 -53 -12 -12
-39 -55 -60 -95 -70 -136 -105 -186 -147 -210 -25 -14 -56 -47 -84 -88 -24
-36 -50 -73 -58 -82 -16 -20 -313 -180 -401 -215 -33 -14 -121 -53 -195 -88
-75 -34 -185 -78 -246 -98 -405 -131 -589 -194 -662 -229 l-83 -40 0 -444 0
-444 1533 0 c902 0 1526 4 1518 9 -8 5 -20 7 -28 4 -9 -4 -13 4 -13 28 0 19 4
39 8 45 16 23 58 44 88 44 26 0 33 5 41 33 l10 32 7 -40 c4 -22 14 -55 22 -74
19 -42 10 -69 -24 -74 -15 -2 618 -5 1406 -6 l1432 -1 0 508 -1 507 -57 27
c-91 44 -353 137 -472 168 -41 10 -118 35 -170 55 -52 20 -106 40 -120 44 -69
22 -175 70 -260 117 -52 29 -122 62 -155 73 -248 83 -354 125 -405 161 -30 22
-88 59 -127 81 -40 22 -73 47 -73 55 0 25 -53 148 -81 189 -15 22 -57 70 -93
108 -51 52 -65 72 -62 90 3 12 8 63 11 112 4 65 20 139 57 265 27 96 56 199
64 229 18 67 19 69 57 85 46 19 68 48 74 98 3 24 22 77 43 118 21 41 41 90 45
107 3 18 11 35 16 38 4 3 25 41 45 83 20 42 41 85 45 94 12 25 33 213 26 232
-4 9 -17 16 -29 17 -13 0 -17 3 -10 6 18 7 15 31 -7 43 -11 5 -35 10 -54 10
-51 0 -61 45 -32 144 25 90 55 391 55 556 -1 277 -8 357 -41 420 -16 30 -29
63 -29 73 0 27 -233 260 -329 329 -47 33 -90 67 -94 75 -5 7 -39 29 -76 47
-37 19 -94 57 -127 84 -32 27 -86 63 -119 80 -33 18 -83 44 -110 60 -28 16
-86 37 -130 47 -44 9 -82 20 -85 24 -3 4 -61 4 -130 0 -69 -4 -129 -4 -135 1
-12 10 -124 10 -150 -1z m1059 -2984 c-4 -8 -10 -15 -15 -15 -5 0 -9 -5 -9
-11 0 -6 9 -8 20 -4 24 8 29 -20 5 -29 -8 -3 -15 -10 -15 -16 0 -17 21 -11 42
13 l19 22 -6 -29 c-3 -15 -13 -36 -22 -45 -16 -15 -16 -15 -10 2 8 21 -6 23
-22 3 -10 -11 -8 -16 5 -24 16 -9 15 -11 -5 -22 -15 -8 -21 -18 -18 -31 3 -10
-4 -30 -15 -44 -18 -24 -18 -25 -1 -26 10 0 3 -5 -15 -10 -26 -8 -31 -13 -23
-23 8 -9 5 -18 -9 -34 -11 -12 -20 -27 -20 -33 0 -7 -8 -21 -17 -31 -16 -18
-16 -18 0 -12 21 8 22 -9 2 -30 -8 -8 -15 -20 -15 -27 0 -9 -4 -8 -15 1 -8 7
-12 17 -8 23 4 6 0 8 -9 4 -14 -5 -15 -1 -6 26 5 18 11 40 12 49 2 19 34 58
48 58 4 0 8 -8 9 -17 0 -13 2 -14 6 -4 7 18 -24 41 -45 33 -15 -5 -15 -3 -4
11 8 9 22 19 31 22 13 4 17 13 13 31 -3 20 -7 23 -14 12 -6 -9 -7 -5 -2 12 15
55 25 71 49 82 24 11 35 38 15 38 -18 0 -10 17 25 53 39 40 47 45 39 22z"/>
<path d="M2323 3963 c37 -10 14 -20 -44 -21 -34 -1 -67 -6 -72 -11 -6 -6 -16
-11 -21 -11 -6 0 0 9 14 21 l25 20 -40 -7 c-26 -4 -52 -18 -75 -41 -19 -18
-27 -31 -17 -27 9 3 17 3 17 0 0 -6 -39 -24 -65 -30 -28 -8 -43 -19 -39 -30 3
-7 -2 -19 -11 -26 -8 -7 -15 -18 -15 -25 0 -8 -12 -27 -26 -44 -14 -17 -21
-31 -15 -31 5 0 13 5 16 11 4 6 13 8 20 5 7 -2 21 1 31 8 11 7 43 21 72 30 58
19 68 31 22 24 -32 -5 -41 6 -13 16 24 10 156 20 255 21 54 0 84 4 80 10 -3 6
1 4 10 -3 9 -7 37 -14 61 -15 35 -2 43 -5 35 -14 -8 -10 -5 -13 12 -13 13 0
20 -3 17 -7 -4 -3 -2 -12 4 -19 18 -21 -8 -27 -160 -35 -154 -7 -197 -16 -273
-56 -64 -33 -76 -50 -53 -67 18 -13 18 -14 1 -32 -18 -17 -17 -18 5 -26 12 -5
30 -7 38 -6 9 1 21 -1 28 -5 15 -10 63 2 63 15 0 7 18 8 48 5 l47 -6 -45 21
c-45 21 -45 21 -20 32 14 6 28 15 32 20 4 6 11 -1 17 -16 5 -14 15 -29 21 -33
5 -3 8 -11 4 -16 -7 -12 71 -10 138 3 73 15 90 4 26 -15 -61 -18 -68 -26 -43
-47 13 -11 13 -15 3 -21 -8 -5 7 -8 35 -7 36 0 57 8 87 29 52 38 61 37 24 -3
-24 -27 -24 -29 -4 -13 48 39 51 48 18 62 -33 14 -30 28 5 28 13 0 26 9 32 23
9 20 15 23 55 26 8 1 16 11 18 24 2 12 8 22 15 22 8 0 8 3 -1 12 -7 7 -12 15
-12 19 0 7 39 22 53 20 4 -1 7 3 7 7 0 5 -24 17 -54 27 -36 12 -53 23 -52 34
0 9 -6 15 -15 15 -21 -2 -24 55 -3 63 16 6 19 59 4 68 -6 4 -7 -1 -4 -12 4
-12 -2 -9 -20 10 -14 15 -28 27 -33 27 -4 0 -2 -5 5 -12 25 -25 11 -28 -20 -5
-34 25 -152 45 -162 28 -4 -5 -22 -5 -43 0 -39 9 -84 11 -50 2z"/>
</g>
</svg>
